<svg width="1920" height="1012" viewBox="0 0 1920 1012" fill="none" xmlns="http://www.w3.org/2000/svg">
<g filter="url(#filter0_f_257_1040)">
<path d="M1748 420.424C1972.11 252.671 1891.98 339.705 2488.97 156L2494.44 165.145C2520.32 217.235 2514.02 329.128 2281.78 359.984C1991.48 398.554 2130 420.424 1628.99 629.975C1127.98 839.526 1457.95 637.53 1748 420.424Z" fill="#4254FF"/>
<path d="M1748 420.424C1972.11 252.671 1891.98 339.705 2488.97 156L2494.44 165.145C2520.32 217.235 2514.02 329.128 2281.78 359.984C1991.48 398.554 2130 420.424 1628.99 629.975C1127.98 839.526 1457.95 637.53 1748 420.424Z" fill="url(#paint0_linear_257_1040)"/>
<path d="M1748 420.424C1972.11 252.671 1891.98 339.705 2488.97 156L2494.44 165.145C2520.32 217.235 2514.02 329.128 2281.78 359.984C1991.48 398.554 2130 420.424 1628.99 629.975C1127.98 839.526 1457.95 637.53 1748 420.424Z" fill="black" fill-opacity="0.61"/>
</g>
<g filter="url(#filter1_f_257_1040)">
<path d="M1963.13 669.076C2140.2 628.233 2065.93 618.018 2462.88 537.558L2464.41 546.233C2469.96 594.949 2444.42 691.381 2297.89 687.381C2114.72 682.38 2194.3 719.775 1850.42 835.442C1506.54 951.109 1768.11 714.059 1963.13 669.076Z" fill="#4254FF"/>
<path d="M1963.13 669.076C2140.2 628.233 2065.93 618.018 2462.88 537.558L2464.41 546.233C2469.96 594.949 2444.42 691.381 2297.89 687.381C2114.72 682.38 2194.3 719.775 1850.42 835.442C1506.54 951.109 1768.11 714.059 1963.13 669.076Z" fill="url(#paint1_linear_257_1040)"/>
<path d="M1963.13 669.076C2140.2 628.233 2065.93 618.018 2462.88 537.558L2464.41 546.233C2469.96 594.949 2444.42 691.381 2297.89 687.381C2114.72 682.38 2194.3 719.775 1850.42 835.442C1506.54 951.109 1768.11 714.059 1963.13 669.076Z" fill="black" fill-opacity="0.82"/>
</g>
<g filter="url(#filter2_f_257_1040)">
<path d="M208.068 302.061C-113.239 66.0217 1.6449 188.484 -854.256 -70L-862.087 -57.1317C-899.195 16.1615 -890.17 173.602 -557.208 217.018C-141.005 271.289 -339.596 302.061 378.689 596.912C1096.97 891.763 623.903 607.542 208.068 302.061Z" fill="#4254FF"/>
<path d="M208.068 302.061C-113.239 66.0217 1.6449 188.484 -854.256 -70L-862.087 -57.1317C-899.195 16.1615 -890.17 173.602 -557.208 217.018C-141.005 271.289 -339.596 302.061 378.689 596.912C1096.97 891.763 623.903 607.542 208.068 302.061Z" fill="url(#paint2_linear_257_1040)"/>
<path d="M208.068 302.061C-113.239 66.0217 1.6449 188.484 -854.256 -70L-862.087 -57.1317C-899.195 16.1615 -890.17 173.602 -557.208 217.018C-141.005 271.289 -339.596 302.061 378.689 596.912C1096.97 891.763 623.903 607.542 208.068 302.061Z" fill="black" fill-opacity="0.61"/>
</g>
<g filter="url(#filter3_f_257_1040)">
<path d="M21.9816 588.066C-179.844 498.626 -85.1796 513.689 -541.677 322.303L-546.727 328.941C-571.359 367.183 -575.409 454.411 -394.549 497.395C-168.474 551.124 -279.592 556.697 99.0431 760.23C477.678 963.763 244.262 686.57 21.9816 588.066Z" fill="#4254FF"/>
<path d="M21.9816 588.066C-179.844 498.626 -85.1796 513.689 -541.677 322.303L-546.727 328.941C-571.359 367.183 -575.409 454.411 -394.549 497.395C-168.474 551.124 -279.592 556.697 99.0431 760.23C477.678 963.763 244.262 686.57 21.9816 588.066Z" fill="url(#paint3_linear_257_1040)"/>
<path d="M21.9816 588.066C-179.844 498.626 -85.1796 513.689 -541.677 322.303L-546.727 328.941C-571.359 367.183 -575.409 454.411 -394.549 497.395C-168.474 551.124 -279.592 556.697 99.0431 760.23C477.678 963.763 244.262 686.57 21.9816 588.066Z" fill="black" fill-opacity="0.84"/>
</g>
<defs>
<filter id="filter0_f_257_1040" x="1182.1" y="-31.9" width="1510.64" height="937.965" filterUnits="userSpaceOnUse" color-interpolation-filters="sRGB">
<feFlood flood-opacity="0" result="BackgroundImageFix"/>
<feBlend mode="normal" in="SourceGraphic" in2="BackgroundImageFix" result="shape"/>
<feGaussianBlur stdDeviation="93.95" result="effect1_foregroundBlur_257_1040"/>
</filter>
<filter id="filter1_f_257_1040" x="1620.92" y="475.458" width="906.277" height="453.556" filterUnits="userSpaceOnUse" color-interpolation-filters="sRGB">
<feFlood flood-opacity="0" result="BackgroundImageFix"/>
<feBlend mode="normal" in="SourceGraphic" in2="BackgroundImageFix" result="shape"/>
<feGaussianBlur stdDeviation="31.05" result="effect1_foregroundBlur_257_1040"/>
</filter>
<filter id="filter2_f_257_1040" x="-1006.9" y="-199.9" width="1886.8" height="1050.8" filterUnits="userSpaceOnUse" color-interpolation-filters="sRGB">
<feFlood flood-opacity="0" result="BackgroundImageFix"/>
<feBlend mode="normal" in="SourceGraphic" in2="BackgroundImageFix" result="shape"/>
<feGaussianBlur stdDeviation="64.95" result="effect1_foregroundBlur_257_1040"/>
</filter>
<filter id="filter3_f_257_1040" x="-633.27" y="248.003" width="1007.34" height="659.39" filterUnits="userSpaceOnUse" color-interpolation-filters="sRGB">
<feFlood flood-opacity="0" result="BackgroundImageFix"/>
<feBlend mode="normal" in="SourceGraphic" in2="BackgroundImageFix" result="shape"/>
<feGaussianBlur stdDeviation="37.15" result="effect1_foregroundBlur_257_1040"/>
</filter>
<linearGradient id="paint0_linear_257_1040" x1="2019" y1="330.5" x2="1751.48" y2="514.104" gradientUnits="userSpaceOnUse">
<stop stop-color="#74ABFF"/>
<stop offset="1" stop-color="#4254FF"/>
</linearGradient>
<linearGradient id="paint1_linear_257_1040" x1="2018.61" y1="688.242" x2="1847.78" y2="722.525" gradientUnits="userSpaceOnUse">
<stop stop-color="#74ABFF"/>
<stop offset="1" stop-color="#4254FF"/>
</linearGradient>
<linearGradient id="paint2_linear_257_1040" x1="-675.5" y1="-70" x2="388.541" y2="524.642" gradientUnits="userSpaceOnUse">
<stop stop-color="#74ABFF"/>
<stop offset="1" stop-color="#4254FF"/>
</linearGradient>
<linearGradient id="paint3_linear_257_1040" x1="-52.9572" y1="586.282" x2="106.128" y2="714.781" gradientUnits="userSpaceOnUse">
<stop stop-color="#74ABFF"/>
<stop offset="1" stop-color="#4254FF"/>
</linearGradient>
</defs>
</svg>
