<svg width="24" height="25" viewBox="0 0 24 25" fill="none" xmlns="http://www.w3.org/2000/svg">
<path d="M16.8 12.4998C16.8 15.1508 14.651 17.2998 12 17.2998C9.34902 17.2998 7.19999 15.1508 7.19999 12.4998C7.19999 9.84884 9.34902 7.6998 12 7.6998C14.651 7.6998 16.8 9.84884 16.8 12.4998ZM16.8 12.4998V14.0998C16.8 15.8671 18.2327 17.2998 20 17.2998C21.1353 17.2998 22.1325 16.7086 22.7005 15.8173C23.0168 15.3211 23.2 14.7318 23.2 14.0998V12.4998C23.2 6.31422 18.1856 1.2998 12 1.2998C5.8144 1.2998 0.799988 6.31422 0.799988 12.4998C0.799988 18.6854 5.8144 23.6998 12 23.6998C14.3796 23.6998 16.5859 22.9577 18.4 21.6923" stroke="white" stroke-opacity="0.5" stroke-width="1.5"/>
</svg>
