<svg width="1920" height="1080" viewBox="0 0 1920 1080" fill="none" xmlns="http://www.w3.org/2000/svg">
<g clip-path="url(#clip0_257_729)">
<line x1="119.5" y1="1080" x2="119.5" stroke="url(#paint0_linear_257_729)"/>
<line x1="399.5" y1="1080" x2="399.5" stroke="#171717"/>
<line x1="679.5" y1="1080" x2="679.5" stroke="#171717"/>
<line x1="959.5" y1="1080" x2="959.5" stroke="#171717"/>
<line x1="1239.5" y1="1080" x2="1239.5" stroke="#171717"/>
<line x1="1519.5" y1="1080" x2="1519.5" stroke="#171717"/>
<line x1="1799.5" y1="1080" x2="1799.5" stroke="url(#paint1_linear_257_729)"/>
<line x1="-1" y1="119.5" x2="1919" y2="119.5" stroke="#171717"/>
<line x1="-1" y1="539.5" x2="1919" y2="539.5" stroke="#171717"/>
<line x1="-1" y1="959.5" x2="1919" y2="959.5" stroke="#171717"/>
<circle cx="3.5" cy="3.5" r="3.5" transform="matrix(-1 0 0 1 123 116)" fill="#171717"/>
<circle cx="3.5" cy="3.5" r="3.5" transform="matrix(-1 0 0 1 403 116)" fill="#171717"/>
<circle cx="3.5" cy="3.5" r="3.5" transform="matrix(-1 0 0 1 683 116)" fill="#171717"/>
<circle cx="3.5" cy="3.5" r="3.5" transform="matrix(-1 0 0 1 963 116)" fill="#171717"/>
<circle cx="3.5" cy="3.5" r="3.5" transform="matrix(-1 0 0 1 1243 116)" fill="#171717"/>
<circle cx="3.5" cy="3.5" r="3.5" transform="matrix(-1 0 0 1 1523 116)" fill="#171717"/>
<circle cx="3.5" cy="3.5" r="3.5" transform="matrix(-1 0 0 1 1803 116)" fill="#171717"/>
<circle cx="3.5" cy="3.5" r="3.5" transform="matrix(-1 0 0 1 123 536)" fill="#171717"/>
<circle cx="3.5" cy="3.5" r="3.5" transform="matrix(-1 0 0 1 403 536)" fill="#171717"/>
<circle cx="3.5" cy="3.5" r="3.5" transform="matrix(-1 0 0 1 683 536)" fill="#171717"/>
<circle cx="3.5" cy="3.5" r="3.5" transform="matrix(-1 0 0 1 963 536)" fill="#171717"/>
<circle cx="3.5" cy="3.5" r="3.5" transform="matrix(-1 0 0 1 1243 536)" fill="#171717"/>
<circle cx="3.5" cy="3.5" r="3.5" transform="matrix(-1 0 0 1 1523 536)" fill="#171717"/>
<circle cx="3.5" cy="3.5" r="3.5" transform="matrix(-1 0 0 1 1803 536)" fill="#171717"/>
<circle cx="3.5" cy="3.5" r="3.5" transform="matrix(-1 0 0 1 123 956)" fill="#171717"/>
<circle cx="3.5" cy="3.5" r="3.5" transform="matrix(-1 0 0 1 403 956)" fill="#171717"/>
<circle cx="3.5" cy="3.5" r="3.5" transform="matrix(-1 0 0 1 683 956)" fill="#171717"/>
<circle cx="3.5" cy="3.5" r="3.5" transform="matrix(-1 0 0 1 963 956)" fill="#171717"/>
<circle cx="3.5" cy="3.5" r="3.5" transform="matrix(-1 0 0 1 1243 956)" fill="#171717"/>
<circle cx="3.5" cy="3.5" r="3.5" transform="matrix(-1 0 0 1 1523 956)" fill="#171717"/>
<circle cx="3.5" cy="3.5" r="3.5" transform="matrix(-1 0 0 1 1803 956)" fill="#171717"/>
</g>
<defs>
<linearGradient id="paint0_linear_257_729" x1="120" y1="882" x2="120" y2="1058" gradientUnits="userSpaceOnUse">
<stop stop-color="#171717"/>
<stop offset="1" stop-color="#080809"/>
</linearGradient>
<linearGradient id="paint1_linear_257_729" x1="1800" y1="882" x2="1800" y2="1077" gradientUnits="userSpaceOnUse">
<stop stop-color="#171717"/>
<stop offset="1" stop-color="#0A0B0C"/>
</linearGradient>
<clipPath id="clip0_257_729">
<rect width="1920" height="1080" fill="white"/>
</clipPath>
</defs>
</svg>
