<svg width="1747" height="1060" viewBox="0 0 1747 1060" fill="none" xmlns="http://www.w3.org/2000/svg">
<g filter="url(#filter0_f_269_1413)">
<g clip-path="url(#clip0_269_1413)">
<path d="M464.5 155C833.833 159.167 1571.7 206.4 1568.5 362C1564.5 556.5 259 655 215 1143" stroke="#3A76EB" stroke-width="7" stroke-miterlimit="14.0378"/>
</g>
<g clip-path="url(#clip1_269_1413)">
<path d="M461.5 152C830.833 156.167 1568.7 203.4 1565.5 359C1561.5 553.5 256 652 212 1140" stroke="#3A76EB" stroke-width="2" stroke-miterlimit="14.0378"/>
</g>
<g filter="url(#filter1_f_269_1413)">
<path d="M1517.66 314.745C1531.24 309.72 1545.02 304.639 1559 299.5L1515 239C1522.82 257.808 1524.4 284.623 1517.66 314.745C859.69 558.279 675.845 669.058 384 846C-21.0764 1091.59 186.009 1405.2 414.5 1027C606.165 709.759 877.61 596.879 1214 543.5C1412.9 511.939 1498.6 400.073 1517.66 314.745Z" fill="#4254FF"/>
<path d="M1517.66 314.745C1531.24 309.72 1545.02 304.639 1559 299.5L1515 239C1522.82 257.808 1524.4 284.623 1517.66 314.745C859.69 558.279 675.845 669.058 384 846C-21.0764 1091.59 186.009 1405.2 414.5 1027C606.165 709.759 877.61 596.879 1214 543.5C1412.9 511.939 1498.6 400.073 1517.66 314.745Z" fill="url(#paint0_linear_269_1413)"/>
<path d="M1517.66 314.745C1531.24 309.72 1545.02 304.639 1559 299.5L1515 239C1522.82 257.808 1524.4 284.623 1517.66 314.745C859.69 558.279 675.845 669.058 384 846C-21.0764 1091.59 186.009 1405.2 414.5 1027C606.165 709.759 877.61 596.879 1214 543.5C1412.9 511.939 1498.6 400.073 1517.66 314.745Z" fill="black" fill-opacity="0.61"/>
</g>
</g>
<g filter="url(#filter2_ddd_269_1413)">
<path d="M452.5 96C821.833 100.167 1559.7 147.4 1556.5 303C1552.5 497.5 -197 649.5 210 1249" stroke="url(#paint1_linear_269_1413)" stroke-width="2" stroke-miterlimit="14.0378" shape-rendering="crispEdges"/>
</g>
<defs>
<filter id="filter0_f_269_1413" x="24.1418" y="23.4" width="1702.46" height="1308.94" filterUnits="userSpaceOnUse" color-interpolation-filters="sRGB">
<feFlood flood-opacity="0" result="BackgroundImageFix"/>
<feBlend mode="normal" in="SourceGraphic" in2="BackgroundImageFix" result="shape"/>
<feGaussianBlur stdDeviation="64.8" result="effect1_foregroundBlur_269_1413"/>
</filter>
<filter id="filter1_f_269_1413" x="-34.1582" y="51.1" width="1781.06" height="1339.54" filterUnits="userSpaceOnUse" color-interpolation-filters="sRGB">
<feFlood flood-opacity="0" result="BackgroundImageFix"/>
<feBlend mode="normal" in="SourceGraphic" in2="BackgroundImageFix" result="shape"/>
<feGaussianBlur stdDeviation="93.95" result="effect1_foregroundBlur_269_1413"/>
</filter>
<filter id="filter2_ddd_269_1413" x="-31.2994" y="0.100006" width="1767.71" height="1512.36" filterUnits="userSpaceOnUse" color-interpolation-filters="sRGB">
<feFlood flood-opacity="0" result="BackgroundImageFix"/>
<feColorMatrix in="SourceAlpha" type="matrix" values="0 0 0 0 0 0 0 0 0 0 0 0 0 0 0 0 0 0 127 0" result="hardAlpha"/>
<feOffset dy="46"/>
<feGaussianBlur stdDeviation="32.4"/>
<feComposite in2="hardAlpha" operator="out"/>
<feColorMatrix type="matrix" values="0 0 0 0 0.423529 0 0 0 0 0.619608 0 0 0 0 1 0 0 0 1 0"/>
<feBlend mode="normal" in2="BackgroundImageFix" result="effect1_dropShadow_269_1413"/>
<feColorMatrix in="SourceAlpha" type="matrix" values="0 0 0 0 0 0 0 0 0 0 0 0 0 0 0 0 0 0 127 0" result="hardAlpha"/>
<feOffset dy="84"/>
<feGaussianBlur stdDeviation="89.45"/>
<feComposite in2="hardAlpha" operator="out"/>
<feColorMatrix type="matrix" values="0 0 0 0 0.271528 0 0 0 0 0.543285 0 0 0 0 0.958333 0 0 0 1 0"/>
<feBlend mode="normal" in2="effect1_dropShadow_269_1413" result="effect2_dropShadow_269_1413"/>
<feColorMatrix in="SourceAlpha" type="matrix" values="0 0 0 0 0 0 0 0 0 0 0 0 0 0 0 0 0 0 127 0" result="hardAlpha"/>
<feOffset dy="10"/>
<feGaussianBlur stdDeviation="16.5"/>
<feComposite in2="hardAlpha" operator="out"/>
<feColorMatrix type="matrix" values="0 0 0 0 0.415686 0 0 0 0 0.603922 0 0 0 0 1 0 0 0 1 0"/>
<feBlend mode="normal" in2="effect2_dropShadow_269_1413" result="effect3_dropShadow_269_1413"/>
<feBlend mode="normal" in="SourceGraphic" in2="effect3_dropShadow_269_1413" result="shape"/>
</filter>
<linearGradient id="paint0_linear_269_1413" x1="1157" y1="493.5" x2="593.026" y2="770.046" gradientUnits="userSpaceOnUse">
<stop stop-color="#1C77FF"/>
<stop offset="1" stop-color="#0019FF"/>
</linearGradient>
<linearGradient id="paint1_linear_269_1413" x1="686" y1="109" x2="1254" y2="794" gradientUnits="userSpaceOnUse">
<stop stop-color="white" stop-opacity="0"/>
<stop offset="0.5" stop-color="white"/>
<stop offset="1" stop-color="white"/>
</linearGradient>
<clipPath id="clip0_269_1413">
<rect width="1410" height="776" fill="white" transform="translate(187 369)"/>
</clipPath>
<clipPath id="clip1_269_1413">
<rect width="1410" height="986" fill="white" transform="translate(184 153)"/>
</clipPath>
</defs>
</svg>
