<svg width="280" height="651" viewBox="0 0 280 651" fill="none" xmlns="http://www.w3.org/2000/svg">
<rect x="-232.293" y="325" width="527" height="527" rx="22.5" transform="rotate(-45 -232.293 325)" stroke="white" stroke-opacity="0.02"/>
<rect x="-164.411" y="325" width="431" height="431" rx="39.5" transform="rotate(-45 -164.411 325)" stroke="white" stroke-opacity="0.03"/>
<rect x="-119.156" y="325" width="367" height="367" rx="29.5" transform="rotate(-45 -119.156 325)" stroke="white" stroke-opacity="0.05"/>
<rect x="-85.2146" y="325" width="319" height="319" rx="32.5" transform="rotate(-45 -85.2146 325)" stroke="white" stroke-opacity="0.1"/>
<rect x="-56.9303" y="325" width="279" height="279" rx="35.5" transform="rotate(-45 -56.9303 325)" stroke="white" stroke-opacity="0.2"/>
<rect x="-28.646" y="325" width="239" height="239" rx="33.5" transform="rotate(-45 -28.646 325)" stroke="white" stroke-opacity="0.4"/>
<rect x="-0.361741" y="325" width="199" height="199" rx="28.5" transform="rotate(-45 -0.361741 325)" stroke="white" stroke-opacity="0.6"/>
<rect x="27.9226" y="325" width="159" height="159" rx="19.5" transform="rotate(-45 27.9226 325)" stroke="white" stroke-opacity="0.8"/>
<g filter="url(#filter0_d_257_1094)">
<rect x="55.4998" y="325" width="120" height="120" rx="18" transform="rotate(-45 55.4998 325)" fill="url(#paint0_linear_257_1094)" fill-opacity="0.01" shape-rendering="crispEdges"/>
<rect x="56.2069" y="325" width="119" height="119" rx="17.5" transform="rotate(-45 56.2069 325)" stroke="url(#paint1_linear_257_1094)" shape-rendering="crispEdges"/>
<g clip-path="url(#clip0_257_1094)">
<path d="M216.221 319.074C214.846 319.074 213.606 319.383 212.503 320C211.399 320.617 210.522 321.488 209.87 322.614C209.237 323.74 208.921 325.074 208.921 326.617C208.921 328.142 209.237 329.467 209.87 330.593C210.522 331.718 211.399 332.59 212.503 333.207C213.606 333.842 214.846 334.16 216.221 334.16C217.505 334.16 218.6 333.888 219.505 333.343C220.427 332.798 221.133 331.972 221.621 330.865C222.11 329.758 222.354 328.342 222.354 326.617C222.354 324.91 222.101 323.494 221.594 322.369C221.088 321.261 220.373 320.435 219.45 319.891C218.528 319.346 217.451 319.074 216.221 319.074ZM216.954 322.56C217.641 322.56 218.265 322.723 218.826 323.05C219.387 323.376 219.83 323.839 220.156 324.438C220.5 325.056 220.672 325.782 220.672 326.617C220.672 327.47 220.5 328.196 220.156 328.795C219.83 329.395 219.387 329.857 218.826 330.184C218.265 330.511 217.641 330.674 216.954 330.674C216.248 330.674 215.615 330.511 215.054 330.184C214.493 329.857 214.041 329.395 213.697 328.795C213.371 328.196 213.208 327.47 213.208 326.617C213.208 325.782 213.371 325.056 213.697 324.438C214.041 323.839 214.493 323.376 215.054 323.05C215.615 322.723 216.248 322.56 216.954 322.56ZM220.59 314.009V322.26L220.862 326.59L220.78 330.947V333.942H224.824V314.009H220.59Z" fill="white"/>
<path d="M182.879 334.033C181.504 334.033 180.265 333.724 179.161 333.107C178.058 332.49 177.18 331.618 176.529 330.493C175.896 329.367 175.579 328.033 175.579 326.49C175.579 324.965 175.896 323.64 176.529 322.514C177.18 321.389 178.058 320.517 179.161 319.9C180.265 319.265 181.504 318.947 182.879 318.947C184.164 318.947 185.258 319.219 186.163 319.764C187.086 320.308 187.791 321.134 188.28 322.242C188.768 323.349 189.012 324.765 189.012 326.49C189.012 328.196 188.759 329.612 188.253 330.738C187.746 331.845 187.031 332.671 186.109 333.216C185.186 333.761 184.109 334.033 182.879 334.033ZM183.612 330.547C184.299 330.547 184.924 330.384 185.484 330.057C186.045 329.73 186.489 329.267 186.814 328.668C187.158 328.051 187.33 327.325 187.33 326.49C187.33 325.637 187.158 324.91 186.814 324.311C186.489 323.712 186.045 323.249 185.484 322.923C184.924 322.596 184.299 322.432 183.612 322.432C182.906 322.432 182.273 322.596 181.712 322.923C181.151 323.249 180.699 323.712 180.355 324.311C180.03 324.91 179.867 325.637 179.867 326.49C179.867 327.325 180.03 328.051 180.355 328.668C180.699 329.267 181.151 329.73 181.712 330.057C182.273 330.384 182.906 330.547 183.612 330.547ZM187.248 339.098V330.847L187.52 326.517L187.438 322.16V319.165H191.482V339.098H187.248Z" fill="white"/>
<path d="M199.108 334.163C197.896 334.163 196.81 333.927 195.851 333.455C194.911 332.983 194.178 332.265 193.653 331.303C193.129 330.323 192.866 329.079 192.866 327.573V319.294H197.1V326.946C197.1 328.163 197.353 329.061 197.86 329.642C198.384 330.205 199.117 330.486 200.058 330.486C200.709 330.486 201.288 330.35 201.795 330.078C202.301 329.787 202.699 329.352 202.989 328.771C203.278 328.172 203.423 327.427 203.423 326.538V319.294H207.657V333.945H203.64V329.915L204.373 331.085C203.884 332.102 203.161 332.874 202.202 333.4C201.261 333.908 200.23 334.163 199.108 334.163Z" fill="white"/>
<path d="M236.02 333.945V331.085L235.749 330.459V325.34C235.749 324.432 235.469 323.724 234.908 323.216C234.365 322.707 233.524 322.453 232.384 322.453C231.606 322.453 230.837 322.58 230.077 322.834C229.335 323.07 228.702 323.397 228.177 323.815L226.658 320.847C227.454 320.284 228.413 319.848 229.534 319.539C230.656 319.231 231.796 319.076 232.954 319.076C235.179 319.076 236.907 319.603 238.137 320.656C239.367 321.709 239.983 323.352 239.983 325.585V333.945H236.02ZM231.57 334.163C230.43 334.163 229.453 333.972 228.639 333.591C227.825 333.191 227.2 332.656 226.766 331.984C226.332 331.312 226.115 330.559 226.115 329.724C226.115 328.853 226.323 328.09 226.739 327.436C227.173 326.783 227.852 326.275 228.774 325.912C229.697 325.53 230.9 325.34 232.384 325.34H236.265V327.818H232.845C231.85 327.818 231.163 327.981 230.783 328.308C230.421 328.635 230.24 329.043 230.24 329.533C230.24 330.078 230.448 330.514 230.864 330.84C231.298 331.149 231.886 331.303 232.628 331.303C233.334 331.303 233.967 331.14 234.528 330.813C235.089 330.468 235.496 329.969 235.749 329.315L236.4 331.276C236.093 332.22 235.532 332.937 234.718 333.427C233.904 333.918 232.854 334.163 231.57 334.163Z" fill="white"/>
<path d="M261.608 333.945V331.085L261.337 330.459V325.34C261.337 324.432 261.056 323.724 260.495 323.216C259.953 322.707 259.111 322.453 257.972 322.453C257.194 322.453 256.425 322.58 255.665 322.834C254.923 323.07 254.29 323.397 253.765 323.815L252.245 320.847C253.041 320.284 254 319.848 255.122 319.539C256.244 319.231 257.384 319.076 258.541 319.076C260.767 319.076 262.495 319.603 263.725 320.656C264.955 321.709 265.57 323.352 265.57 325.585V333.945H261.608ZM257.157 334.163C256.018 334.163 255.041 333.972 254.226 333.591C253.412 333.191 252.788 332.656 252.354 331.984C251.92 331.312 251.703 330.559 251.703 329.724C251.703 328.853 251.911 328.09 252.327 327.436C252.761 326.783 253.439 326.275 254.362 325.912C255.285 325.53 256.488 325.34 257.972 325.34H261.852V327.818H258.433C257.438 327.818 256.75 327.981 256.37 328.308C256.009 328.635 255.828 329.043 255.828 329.533C255.828 330.078 256.036 330.514 256.452 330.84C256.886 331.149 257.474 331.303 258.216 331.303C258.921 331.303 259.555 331.14 260.116 330.813C260.676 330.468 261.083 329.969 261.337 329.315L261.988 331.276C261.681 332.22 261.12 332.937 260.305 333.427C259.491 333.918 258.442 334.163 257.157 334.163Z" fill="white"/>
<path d="M248.284 334.163C246.566 334.163 245.227 333.727 244.268 332.855C243.309 331.966 242.83 330.65 242.83 328.907V316.054H247.063V328.853C247.063 329.47 247.226 329.951 247.552 330.296C247.877 330.623 248.321 330.786 248.881 330.786C249.551 330.786 250.121 330.604 250.591 330.241L251.731 333.237C251.297 333.545 250.772 333.781 250.157 333.945C249.56 334.09 248.936 334.163 248.284 334.163ZM240.577 322.889V319.621H250.7V322.889H240.577Z" fill="white"/>
<path d="M165.055 328.708C165.236 327.996 165.96 324.844 165.146 320.872C164.82 319.323 163.572 313.677 158.182 309.795C156.898 308.869 153.28 306.34 148.089 306.518C146.787 306.553 142.916 306.856 139.281 309.634C136.369 311.861 135.139 314.532 134.65 315.618C132.878 319.554 133.222 323.098 133.402 324.398C134.09 329.225 136.785 332.306 137.798 333.357L151.2 346.5H161.51C159.593 344.612 157.676 342.724 155.758 340.837C159.991 339.073 163.807 333.766 165.055 328.708ZM156.735 330.169C155.632 332.324 154.185 333.588 153.859 333.873C152.756 334.817 151.653 335.405 150.658 335.797C148.107 333.285 145.557 330.774 143.007 328.263C142.374 327.533 141.234 326.019 140.818 323.811C140.674 323.027 139.986 318.895 142.953 315.939C143.387 315.494 145.25 313.748 148.144 313.606C151.128 313.463 153.208 315.12 154.112 315.868C157.314 318.45 157.893 322.065 158.019 322.992C158.526 326.553 157.187 329.278 156.735 330.169Z" fill="white"/>
<path d="M143.405 342.974C141.144 343.918 138.648 344.434 136.043 344.434C125.444 344.434 116.853 335.903 116.853 325.378C116.853 314.853 125.082 306.5 135.681 306.5C136.477 306.5 137.273 306.553 138.051 306.642L132.082 313.766C127.416 315.494 124.087 319.964 124.087 325.182C124.087 331.932 129.622 337.399 136.459 337.399C136.857 337.399 137.255 337.382 137.653 337.346L143.405 342.974Z" fill="white"/>
</g>
</g>
<defs>
<filter id="filter0_d_257_1094" x="-42.8002" y="142.847" width="366.306" height="366.306" filterUnits="userSpaceOnUse" color-interpolation-filters="sRGB">
<feFlood flood-opacity="0" result="BackgroundImageFix"/>
<feColorMatrix in="SourceAlpha" type="matrix" values="0 0 0 0 0 0 0 0 0 0 0 0 0 0 0 0 0 0 127 0" result="hardAlpha"/>
<feOffset dy="1"/>
<feGaussianBlur stdDeviation="49.15"/>
<feComposite in2="hardAlpha" operator="out"/>
<feColorMatrix type="matrix" values="0 0 0 0 1 0 0 0 0 1 0 0 0 0 1 0 0 0 0.05 0"/>
<feBlend mode="normal" in2="BackgroundImageFix" result="effect1_dropShadow_257_1094"/>
<feBlend mode="normal" in="SourceGraphic" in2="effect1_dropShadow_257_1094" result="shape"/>
</filter>
<linearGradient id="paint0_linear_257_1094" x1="111.666" y1="325" x2="167.102" y2="426.423" gradientUnits="userSpaceOnUse">
<stop stop-color="#1E1E1E"/>
<stop offset="1" stop-color="#363636"/>
</linearGradient>
<linearGradient id="paint1_linear_257_1094" x1="115.821" y1="325" x2="115.821" y2="445" gradientUnits="userSpaceOnUse">
<stop stop-color="white"/>
<stop offset="1" stop-color="white"/>
</linearGradient>
<clipPath id="clip0_257_1094">
<rect width="51" height="51" fill="white" transform="translate(114.853 299.5)"/>
</clipPath>
</defs>
</svg>
