<svg width="1747" height="458" viewBox="0 0 1747 458" fill="none" xmlns="http://www.w3.org/2000/svg">
<g filter="url(#filter0_d_257_2488)">
<ellipse cx="0.99843" cy="1.09075" rx="0.99843" ry="1.09075" transform="matrix(-0.798317 0.602237 0.602237 0.798317 172.179 12.2236)" fill="white"/>
</g>
<g filter="url(#filter1_d_257_2488)">
<ellipse cx="0.99843" cy="1.09075" rx="0.99843" ry="1.09075" transform="matrix(-0.798317 0.602237 0.602237 0.798317 154.853 85.4121)" fill="white"/>
</g>
<g filter="url(#filter2_d_257_2488)">
<ellipse cx="0.99843" cy="1.09075" rx="0.99843" ry="1.09075" transform="matrix(-0.798317 0.602237 0.602237 0.798317 21.0067 224.64)" fill="white"/>
</g>
<g filter="url(#filter3_d_257_2488)">
<ellipse cx="0.99843" cy="1.09075" rx="0.99843" ry="1.09075" transform="matrix(-0.798317 0.602237 0.602237 0.798317 269.883 50.5552)" fill="white"/>
</g>
<g filter="url(#filter4_d_257_2488)">
<ellipse cx="0.99843" cy="1.09075" rx="0.99843" ry="1.09075" transform="matrix(-0.798317 0.602237 0.602237 0.798317 70.3123 134.159)" fill="white"/>
</g>
<g filter="url(#filter5_f_257_2488)">
<g clip-path="url(#clip0_257_2488)">
<path d="M464.5 -905C833.833 -900.833 1571.7 -853.6 1568.5 -698C1564.5 -503.5 259 -405 215 83" stroke="#3A76EB" stroke-width="7" stroke-miterlimit="14.0378"/>
</g>
<g clip-path="url(#clip1_257_2488)">
<path d="M461.5 -908C830.833 -903.833 1568.7 -856.6 1565.5 -701C1561.5 -506.5 256 -408 212 80" stroke="#3A76EB" stroke-width="2" stroke-miterlimit="14.0378"/>
</g>
<g filter="url(#filter6_f_257_2488)">
<path d="M1517.66 -745.255C1531.24 -750.28 1545.02 -755.361 1559 -760.5L1515 -821C1522.82 -802.192 1524.4 -775.377 1517.66 -745.255C859.69 -501.721 675.845 -390.942 384 -214C-21.0764 31.5923 186.009 345.196 414.5 -33C606.165 -350.241 877.61 -463.121 1214 -516.5C1412.9 -548.061 1498.6 -659.927 1517.66 -745.255Z" fill="#4254FF"/>
<path d="M1517.66 -745.255C1531.24 -750.28 1545.02 -755.361 1559 -760.5L1515 -821C1522.82 -802.192 1524.4 -775.377 1517.66 -745.255C859.69 -501.721 675.845 -390.942 384 -214C-21.0764 31.5923 186.009 345.196 414.5 -33C606.165 -350.241 877.61 -463.121 1214 -516.5C1412.9 -548.061 1498.6 -659.927 1517.66 -745.255Z" fill="url(#paint0_linear_257_2488)"/>
<path d="M1517.66 -745.255C1531.24 -750.28 1545.02 -755.361 1559 -760.5L1515 -821C1522.82 -802.192 1524.4 -775.377 1517.66 -745.255C859.69 -501.721 675.845 -390.942 384 -214C-21.0764 31.5923 186.009 345.196 414.5 -33C606.165 -350.241 877.61 -463.121 1214 -516.5C1412.9 -548.061 1498.6 -659.927 1517.66 -745.255Z" fill="black" fill-opacity="0.61"/>
</g>
</g>
<g filter="url(#filter7_f_257_2488)">
<circle cx="210" cy="189" r="6" fill="white"/>
</g>
<g filter="url(#filter8_f_257_2488)">
<circle cx="210" cy="189" r="6" fill="white" fill-opacity="0.62"/>
</g>
<g filter="url(#filter9_ddd_257_2488)">
<path d="M1556.5 -757L1557.5 -756.979L1556.5 -757ZM204.667 189C204.667 191.946 207.054 194.333 210 194.333C212.946 194.333 215.333 191.946 215.333 189C215.333 186.054 212.946 183.667 210 183.667C207.054 183.667 204.667 186.054 204.667 189ZM452.489 -963C637.132 -960.917 913.887 -948.068 1144.06 -916.297C1259.16 -900.41 1362.56 -879.799 1436.95 -853.459C1474.16 -840.287 1504.05 -825.705 1524.51 -809.612C1544.98 -793.517 1555.89 -776.026 1555.5 -757.021L1557.5 -756.979C1557.91 -776.874 1546.46 -794.897 1525.75 -811.184C1505.03 -827.473 1474.91 -842.142 1437.62 -855.344C1363.03 -881.753 1259.47 -902.386 1144.34 -918.278C914.047 -950.065 637.201 -962.916 452.511 -965L452.489 -963ZM1555.5 -757.021C1555.26 -745.257 1548.41 -733.506 1535.57 -721.644C1522.73 -709.792 1504.03 -697.943 1480.35 -685.99C1433 -662.087 1365.99 -637.873 1286.88 -612.389C1128.74 -561.445 922.296 -505.444 728.791 -436.818C535.289 -368.192 354.448 -286.854 247.436 -185.1C193.913 -134.207 158.787 -78.1394 149.85 -15.9352C140.911 46.283 158.197 114.476 209.173 189.562L210.827 188.438C160.053 113.649 142.979 45.9514 151.83 -15.6508C160.682 -77.2668 195.493 -132.95 248.814 -183.65C355.489 -285.084 535.962 -366.308 729.459 -434.932C922.954 -503.556 1129.2 -559.492 1287.49 -610.486C1366.61 -635.971 1433.75 -660.225 1481.25 -684.205C1505 -696.193 1523.89 -708.14 1536.93 -720.175C1549.95 -732.201 1557.24 -744.431 1557.5 -756.979L1555.5 -757.021Z" fill="url(#paint1_linear_257_2488)"/>
</g>
<defs>
<filter id="filter0_d_257_2488" x="162.706" y="4.33721" width="18.6658" height="18.7167" filterUnits="userSpaceOnUse" color-interpolation-filters="sRGB">
<feFlood flood-opacity="0" result="BackgroundImageFix"/>
<feColorMatrix in="SourceAlpha" type="matrix" values="0 0 0 0 0 0 0 0 0 0 0 0 0 0 0 0 0 0 127 0" result="hardAlpha"/>
<feOffset/>
<feGaussianBlur stdDeviation="4.15"/>
<feComposite in2="hardAlpha" operator="out"/>
<feColorMatrix type="matrix" values="0 0 0 0 1 0 0 0 0 1 0 0 0 0 1 0 0 0 0.25 0"/>
<feBlend mode="normal" in2="BackgroundImageFix" result="effect1_dropShadow_257_2488"/>
<feBlend mode="normal" in="SourceGraphic" in2="effect1_dropShadow_257_2488" result="shape"/>
</filter>
<filter id="filter1_d_257_2488" x="145.38" y="77.5257" width="18.6658" height="18.7167" filterUnits="userSpaceOnUse" color-interpolation-filters="sRGB">
<feFlood flood-opacity="0" result="BackgroundImageFix"/>
<feColorMatrix in="SourceAlpha" type="matrix" values="0 0 0 0 0 0 0 0 0 0 0 0 0 0 0 0 0 0 127 0" result="hardAlpha"/>
<feOffset/>
<feGaussianBlur stdDeviation="4.15"/>
<feComposite in2="hardAlpha" operator="out"/>
<feColorMatrix type="matrix" values="0 0 0 0 1 0 0 0 0 1 0 0 0 0 1 0 0 0 0.25 0"/>
<feBlend mode="normal" in2="BackgroundImageFix" result="effect1_dropShadow_257_2488"/>
<feBlend mode="normal" in="SourceGraphic" in2="effect1_dropShadow_257_2488" result="shape"/>
</filter>
<filter id="filter2_d_257_2488" x="11.5336" y="216.754" width="18.6658" height="18.7167" filterUnits="userSpaceOnUse" color-interpolation-filters="sRGB">
<feFlood flood-opacity="0" result="BackgroundImageFix"/>
<feColorMatrix in="SourceAlpha" type="matrix" values="0 0 0 0 0 0 0 0 0 0 0 0 0 0 0 0 0 0 127 0" result="hardAlpha"/>
<feOffset/>
<feGaussianBlur stdDeviation="4.15"/>
<feComposite in2="hardAlpha" operator="out"/>
<feColorMatrix type="matrix" values="0 0 0 0 1 0 0 0 0 1 0 0 0 0 1 0 0 0 0.9 0"/>
<feBlend mode="normal" in2="BackgroundImageFix" result="effect1_dropShadow_257_2488"/>
<feBlend mode="normal" in="SourceGraphic" in2="effect1_dropShadow_257_2488" result="shape"/>
</filter>
<filter id="filter3_d_257_2488" x="260.41" y="42.6687" width="18.6658" height="18.7167" filterUnits="userSpaceOnUse" color-interpolation-filters="sRGB">
<feFlood flood-opacity="0" result="BackgroundImageFix"/>
<feColorMatrix in="SourceAlpha" type="matrix" values="0 0 0 0 0 0 0 0 0 0 0 0 0 0 0 0 0 0 127 0" result="hardAlpha"/>
<feOffset/>
<feGaussianBlur stdDeviation="4.15"/>
<feComposite in2="hardAlpha" operator="out"/>
<feColorMatrix type="matrix" values="0 0 0 0 1 0 0 0 0 1 0 0 0 0 1 0 0 0 0.9 0"/>
<feBlend mode="normal" in2="BackgroundImageFix" result="effect1_dropShadow_257_2488"/>
<feBlend mode="normal" in="SourceGraphic" in2="effect1_dropShadow_257_2488" result="shape"/>
</filter>
<filter id="filter4_d_257_2488" x="60.8392" y="126.273" width="18.6658" height="18.7167" filterUnits="userSpaceOnUse" color-interpolation-filters="sRGB">
<feFlood flood-opacity="0" result="BackgroundImageFix"/>
<feColorMatrix in="SourceAlpha" type="matrix" values="0 0 0 0 0 0 0 0 0 0 0 0 0 0 0 0 0 0 127 0" result="hardAlpha"/>
<feOffset/>
<feGaussianBlur stdDeviation="4.15"/>
<feComposite in2="hardAlpha" operator="out"/>
<feColorMatrix type="matrix" values="0 0 0 0 1 0 0 0 0 1 0 0 0 0 1 0 0 0 0.9 0"/>
<feBlend mode="normal" in2="BackgroundImageFix" result="effect1_dropShadow_257_2488"/>
<feBlend mode="normal" in="SourceGraphic" in2="effect1_dropShadow_257_2488" result="shape"/>
</filter>
<filter id="filter5_f_257_2488" x="24.1418" y="-1036.6" width="1702.46" height="1308.94" filterUnits="userSpaceOnUse" color-interpolation-filters="sRGB">
<feFlood flood-opacity="0" result="BackgroundImageFix"/>
<feBlend mode="normal" in="SourceGraphic" in2="BackgroundImageFix" result="shape"/>
<feGaussianBlur stdDeviation="64.8" result="effect1_foregroundBlur_257_2488"/>
</filter>
<filter id="filter6_f_257_2488" x="-34.1582" y="-1008.9" width="1781.06" height="1339.54" filterUnits="userSpaceOnUse" color-interpolation-filters="sRGB">
<feFlood flood-opacity="0" result="BackgroundImageFix"/>
<feBlend mode="normal" in="SourceGraphic" in2="BackgroundImageFix" result="shape"/>
<feGaussianBlur stdDeviation="93.95" result="effect1_foregroundBlur_257_2488"/>
</filter>
<filter id="filter7_f_257_2488" x="162.6" y="141.6" width="94.8" height="94.8" filterUnits="userSpaceOnUse" color-interpolation-filters="sRGB">
<feFlood flood-opacity="0" result="BackgroundImageFix"/>
<feBlend mode="normal" in="SourceGraphic" in2="BackgroundImageFix" result="shape"/>
<feGaussianBlur stdDeviation="20.7" result="effect1_foregroundBlur_257_2488"/>
</filter>
<filter id="filter8_f_257_2488" x="182.7" y="161.7" width="54.6" height="54.6" filterUnits="userSpaceOnUse" color-interpolation-filters="sRGB">
<feFlood flood-opacity="0" result="BackgroundImageFix"/>
<feBlend mode="normal" in="SourceGraphic" in2="BackgroundImageFix" result="shape"/>
<feGaussianBlur stdDeviation="10.65" result="effect1_foregroundBlur_257_2488"/>
</filter>
<filter id="filter9_ddd_257_2488" x="-31.2994" y="-1059.9" width="1767.71" height="1517.13" filterUnits="userSpaceOnUse" color-interpolation-filters="sRGB">
<feFlood flood-opacity="0" result="BackgroundImageFix"/>
<feColorMatrix in="SourceAlpha" type="matrix" values="0 0 0 0 0 0 0 0 0 0 0 0 0 0 0 0 0 0 127 0" result="hardAlpha"/>
<feOffset dy="46"/>
<feGaussianBlur stdDeviation="32.4"/>
<feComposite in2="hardAlpha" operator="out"/>
<feColorMatrix type="matrix" values="0 0 0 0 0.423529 0 0 0 0 0.619608 0 0 0 0 1 0 0 0 1 0"/>
<feBlend mode="normal" in2="BackgroundImageFix" result="effect1_dropShadow_257_2488"/>
<feColorMatrix in="SourceAlpha" type="matrix" values="0 0 0 0 0 0 0 0 0 0 0 0 0 0 0 0 0 0 127 0" result="hardAlpha"/>
<feOffset dy="84"/>
<feGaussianBlur stdDeviation="89.45"/>
<feComposite in2="hardAlpha" operator="out"/>
<feColorMatrix type="matrix" values="0 0 0 0 0.271528 0 0 0 0 0.543285 0 0 0 0 0.958333 0 0 0 1 0"/>
<feBlend mode="normal" in2="effect1_dropShadow_257_2488" result="effect2_dropShadow_257_2488"/>
<feColorMatrix in="SourceAlpha" type="matrix" values="0 0 0 0 0 0 0 0 0 0 0 0 0 0 0 0 0 0 127 0" result="hardAlpha"/>
<feOffset dy="10"/>
<feGaussianBlur stdDeviation="16.5"/>
<feComposite in2="hardAlpha" operator="out"/>
<feColorMatrix type="matrix" values="0 0 0 0 0.415686 0 0 0 0 0.603922 0 0 0 0 1 0 0 0 1 0"/>
<feBlend mode="normal" in2="effect2_dropShadow_257_2488" result="effect3_dropShadow_257_2488"/>
<feBlend mode="normal" in="SourceGraphic" in2="effect3_dropShadow_257_2488" result="shape"/>
</filter>
<linearGradient id="paint0_linear_257_2488" x1="1157" y1="-566.5" x2="593.026" y2="-289.954" gradientUnits="userSpaceOnUse">
<stop stop-color="#1C77FF"/>
<stop offset="1" stop-color="#0019FF"/>
</linearGradient>
<linearGradient id="paint1_linear_257_2488" x1="686" y1="-951" x2="1254" y2="-266" gradientUnits="userSpaceOnUse">
<stop stop-color="white" stop-opacity="0"/>
<stop offset="0.5" stop-color="white"/>
<stop offset="1" stop-color="white"/>
</linearGradient>
<clipPath id="clip0_257_2488">
<rect width="1410" height="776" fill="white" transform="translate(187 -691)"/>
</clipPath>
<clipPath id="clip1_257_2488">
<rect width="1410" height="986" fill="white" transform="translate(184 -907)"/>
</clipPath>
</defs>
</svg>
