<svg width="145" height="39" viewBox="0 0 145 39" fill="none" xmlns="http://www.w3.org/2000/svg">
<path d="M96.8842 12.2596C95.5435 12.2596 94.3352 12.5605 93.2591 13.1623C92.1831 13.7641 91.3275 14.6137 90.6925 15.7111C90.0751 16.8085 89.7664 18.1095 89.7664 19.614C89.7664 21.1009 90.0751 22.393 90.6925 23.4904C91.3275 24.5878 92.1831 25.4374 93.2591 26.0393C94.3352 26.6588 95.5435 26.9685 96.8842 26.9685C98.1366 26.9685 99.2038 26.703 100.086 26.172C100.985 25.641 101.673 24.8356 102.15 23.7559C102.626 22.6762 102.864 21.2956 102.864 19.614C102.864 17.9502 102.617 16.5696 102.123 15.4722C101.629 14.3925 100.933 13.5871 100.033 13.0561C99.1333 12.5251 98.0837 12.2596 96.8842 12.2596ZM97.5986 15.658C98.2689 15.658 98.8775 15.8173 99.4243 16.1359C99.9712 16.4545 100.403 16.9059 100.721 17.49C101.056 18.0918 101.224 18.7998 101.224 19.614C101.224 20.446 101.056 21.154 100.721 21.7381C100.403 22.3222 99.9712 22.7736 99.4243 23.0922C98.8775 23.4108 98.2689 23.5701 97.5986 23.5701C96.9106 23.5701 96.2932 23.4108 95.7464 23.0922C95.1995 22.7736 94.7585 22.3222 94.4234 21.7381C94.1058 21.154 93.9471 20.446 93.9471 19.614C93.9471 18.7998 94.1058 18.0918 94.4234 17.49C94.7585 16.9059 95.1995 16.4545 95.7464 16.1359C96.2932 15.8173 96.9106 15.658 97.5986 15.658ZM101.144 7.32118V15.366L101.409 19.5875L101.329 23.8356V26.7561H105.272V7.32118H101.144Z" fill="white"/>
<path d="M64.376 26.8446C63.0354 26.8446 61.827 26.5437 60.751 25.9419C59.6749 25.3401 58.8194 24.4905 58.1843 23.3931C57.5669 22.2956 57.2582 20.9947 57.2582 19.4901C57.2582 18.0033 57.5669 16.7112 58.1843 15.6138C58.8194 14.5164 59.6749 13.6667 60.751 13.0649C61.827 12.4454 63.0354 12.1357 64.376 12.1357C65.6285 12.1357 66.6957 12.4012 67.5777 12.9322C68.4773 13.4632 69.1653 14.2686 69.6416 15.3483C70.1179 16.428 70.356 17.8086 70.356 19.4901C70.356 21.154 70.109 22.5346 69.6151 23.632C69.1212 24.7117 68.4244 25.5171 67.5248 26.0481C66.6251 26.5791 65.5755 26.8446 64.376 26.8446ZM65.0904 23.4462C65.7608 23.4462 66.3693 23.2869 66.9162 22.9683C67.463 22.6496 67.8952 22.1983 68.2127 21.6142C68.5479 21.0124 68.7155 20.3044 68.7155 19.4901C68.7155 18.6582 68.5479 17.9502 68.2127 17.3661C67.8952 16.782 67.463 16.3306 66.9162 16.012C66.3693 15.6934 65.7608 15.5341 65.0904 15.5341C64.4025 15.5341 63.7851 15.6934 63.2382 16.012C62.6914 16.3306 62.2504 16.782 61.9152 17.3661C61.5977 17.9502 61.4389 18.6582 61.4389 19.4901C61.4389 20.3044 61.5977 21.0124 61.9152 21.6142C62.2504 22.1983 62.6914 22.6496 63.2382 22.9683C63.7851 23.2869 64.4025 23.4462 65.0904 23.4462ZM68.6361 31.783V23.7382L68.9007 19.5167L68.8213 15.2686V12.3481H72.7639V31.783H68.6361Z" fill="white"/>
<path d="M80.1992 26.9711C79.0173 26.9711 77.9589 26.7409 77.0239 26.2807C76.1067 25.8205 75.3922 25.1214 74.8807 24.1833C74.3691 23.2274 74.1133 22.015 74.1133 20.5458V12.4745H78.2411V19.9352C78.2411 21.1211 78.4881 21.9973 78.982 22.5637C79.4936 23.1124 80.208 23.3867 81.1253 23.3867C81.7603 23.3867 82.3248 23.254 82.8187 22.9885C83.3126 22.7053 83.7007 22.2805 83.983 21.7141C84.2652 21.1299 84.4063 20.4042 84.4063 19.5369V12.4745H88.5341V26.7586H84.618V22.8292L85.3324 23.9708C84.8561 24.9621 84.1505 25.7143 83.2156 26.2276C82.2983 26.7232 81.2929 26.9711 80.1992 26.9711Z" fill="white"/>
<path d="M116.189 26.7586V23.9708L115.924 23.3602V18.3687C115.924 17.4837 115.651 16.7934 115.104 16.2978C114.575 15.8022 113.754 15.5544 112.643 15.5544C111.885 15.5544 111.135 15.6783 110.394 15.9261C109.671 16.1562 109.053 16.4748 108.542 16.8819L107.06 13.9879C107.836 13.4392 108.771 13.0144 109.865 12.7135C110.958 12.4125 112.07 12.2621 113.199 12.2621C115.368 12.2621 117.053 12.7754 118.253 13.802C119.452 14.8286 120.052 16.4305 120.052 18.6077V26.7586H116.189ZM111.849 26.9711C110.738 26.9711 109.785 26.7852 108.992 26.4135C108.198 26.0241 107.589 25.5019 107.166 24.847C106.742 24.1921 106.531 23.4575 106.531 22.6433C106.531 21.7937 106.734 21.0503 107.139 20.4131C107.563 19.7759 108.224 19.2803 109.124 18.9263C110.023 18.5546 111.197 18.3687 112.643 18.3687H116.427V20.7848H113.093C112.123 20.7848 111.452 20.9441 111.082 21.2627C110.729 21.5813 110.553 21.9796 110.553 22.4575C110.553 22.9885 110.756 23.4133 111.161 23.7319C111.585 24.0328 112.158 24.1833 112.881 24.1833C113.569 24.1833 114.187 24.0239 114.733 23.7053C115.28 23.369 115.677 22.8823 115.924 22.2451L116.559 24.1567C116.259 25.0771 115.712 25.7763 114.919 26.2542C114.125 26.7321 113.102 26.9711 111.849 26.9711Z" fill="white"/>
<path d="M141.137 26.7586V23.9708L140.872 23.3602V18.3687C140.872 17.4837 140.599 16.7934 140.052 16.2978C139.523 15.8022 138.702 15.5544 137.591 15.5544C136.833 15.5544 136.083 15.6783 135.342 15.9261C134.619 16.1562 134.001 16.4748 133.49 16.8819L132.008 13.9879C132.784 13.4392 133.719 13.0144 134.813 12.7135C135.907 12.4125 137.018 12.2621 138.147 12.2621C140.317 12.2621 142.001 12.7754 143.201 13.802C144.4 14.8286 145 16.4305 145 18.6077V26.7586H141.137ZM136.797 26.9711C135.686 26.9711 134.733 26.7852 133.94 26.4135C133.146 26.0241 132.537 25.5019 132.114 24.847C131.691 24.1921 131.479 23.4575 131.479 22.6433C131.479 21.7937 131.682 21.0503 132.087 20.4131C132.511 19.7759 133.172 19.2803 134.072 18.9263C134.972 18.5546 136.145 18.3687 137.591 18.3687H141.375V20.7848H138.041C137.071 20.7848 136.4 20.9441 136.03 21.2627C135.677 21.5813 135.501 21.9796 135.501 22.4575C135.501 22.9885 135.704 23.4133 136.109 23.7319C136.533 24.0328 137.106 24.1833 137.829 24.1833C138.517 24.1833 139.135 24.0239 139.682 23.7053C140.228 23.369 140.625 22.8823 140.872 22.2451L141.507 24.1567C141.207 25.0771 140.661 25.7763 139.867 26.2542C139.073 26.7321 138.05 26.9711 136.797 26.9711Z" fill="white"/>
<path d="M128.146 26.9711C126.47 26.9711 125.165 26.5462 124.23 25.6966C123.295 24.8293 122.828 23.546 122.828 21.8468V9.315H126.955V21.7937C126.955 22.3955 127.114 22.8646 127.432 23.2009C127.749 23.5195 128.181 23.6788 128.728 23.6788C129.381 23.6788 129.937 23.5018 130.395 23.1478L131.507 26.0683C131.083 26.3692 130.572 26.5993 129.972 26.7586C129.39 26.9003 128.781 26.9711 128.146 26.9711ZM120.631 15.9792V12.7931H130.501V15.9792H120.631Z" fill="white"/>
<path d="M46.9977 21.6532C47.1741 20.9586 47.8795 17.8851 47.0859 14.0129C46.7685 12.5022 45.5517 6.99777 40.2964 3.21238C39.0443 2.30944 35.5172 -0.156278 30.4559 0.0173642C29.1862 0.0520926 25.4123 0.347284 21.8676 3.0561C19.0283 5.22663 17.8292 7.83126 17.353 8.89047C15.6248 12.728 15.9598 16.1834 16.1362 17.451C16.8063 22.1567 19.434 25.1607 20.4215 26.1852L33.4892 39H43.5412C41.6719 37.1594 39.8026 35.3188 37.9333 33.4782C42.0599 31.7591 45.7809 26.5846 46.9977 21.6532ZM38.8856 23.077C37.8098 25.1781 36.399 26.411 36.0816 26.6888C35.0058 27.6091 33.9301 28.1821 32.9601 28.5641C30.4736 26.1158 27.987 23.6674 25.5005 21.2191C24.8832 20.5071 23.7722 19.0312 23.3666 16.878C23.2255 16.114 22.5554 12.0855 25.4475 9.20303C25.8708 8.76892 27.6872 7.06723 30.5088 6.92832C33.4187 6.7894 35.4467 8.40427 36.3285 9.13357C39.4499 11.6514 40.0142 15.1763 40.1376 16.0793C40.6314 19.5521 39.3264 22.2088 38.8856 23.077Z" fill="white"/>
<path d="M25.8884 35.5619C23.684 36.4822 21.2504 36.9858 18.7109 36.9858C8.37671 36.9858 0 28.6683 0 18.4061C0 8.14381 8.024 0 18.3582 0C19.1342 0 19.9101 0.0520926 20.6684 0.138914L14.8488 7.0846C10.2989 8.76892 7.05407 13.1273 7.05407 18.2151C7.05407 24.7961 12.4504 30.1269 19.1165 30.1269C19.5045 30.1269 19.8925 30.1095 20.2804 30.0748L25.8884 35.5619Z" fill="white"/>
</svg>
