<svg width="30" height="24" viewBox="0 0 30 24" fill="none" xmlns="http://www.w3.org/2000/svg">
<path d="M28.8074 13.325C28.9155 12.8976 29.3479 11.0062 28.8615 8.62333C28.6669 7.69368 27.921 4.30632 24.6998 1.97685C23.9323 1.42119 21.7704 -0.096171 18.6681 0.0106857C17.8898 0.032057 15.5765 0.213713 13.4038 1.88068C11.6635 3.21638 10.9284 4.81923 10.6366 5.47106C9.57724 7.83259 9.78262 9.95904 9.89072 10.7391C10.3015 13.6349 11.9121 15.4835 12.5174 16.114L20.5273 24H26.6887C25.5429 22.8673 24.3971 21.7346 23.2513 20.602C25.7807 19.5441 28.0615 16.3598 28.8074 13.325ZM23.835 14.2012C23.1756 15.4942 22.3109 16.2529 22.1163 16.4239C21.4569 16.9902 20.7975 17.3428 20.203 17.5779C18.6789 16.0712 17.1547 14.5646 15.6306 13.0579C15.2522 12.6198 14.5712 11.7115 14.3226 10.3865C14.2362 9.9163 13.8254 7.43722 15.5982 5.6634C15.8576 5.39626 16.971 4.34906 18.7005 4.26358C20.4841 4.17809 21.7272 5.17186 22.2676 5.62066C24.1809 7.17008 24.5268 9.33927 24.6025 9.89492C24.9052 12.0321 24.1053 13.667 23.835 14.2012Z" fill="white"/>
<path d="M15.8684 21.8842C14.5172 22.4506 13.0255 22.7605 11.4689 22.7605C5.13453 22.7605 0 17.642 0 11.3268C0 5.01158 4.91834 0 11.2527 0C11.7283 0 12.204 0.032057 12.6688 0.0854853L9.10163 4.35975C6.31277 5.39626 4.32381 8.07836 4.32381 11.2093C4.32381 15.2591 7.63153 18.5396 11.7175 18.5396C11.9553 18.5396 12.1932 18.5289 12.431 18.5076L15.8684 21.8842Z" fill="white"/>
</svg>
