<svg width="21" height="19" viewBox="0 0 21 19" fill="none" xmlns="http://www.w3.org/2000/svg">
<path fill-rule="evenodd" clip-rule="evenodd" d="M1.14001 8.85134L8.68987 0.935184C9.04193 0.575027 9.61331 0.533193 10.0244 0.898807C10.3912 1.2244 10.4004 1.86104 10.0612 2.21572L4.00057 8.56029H19.3953C19.9169 8.56029 20.339 8.97683 20.339 9.4916C20.339 10.0064 19.9169 10.4229 19.3953 10.4229H4.00057L10.0612 16.7675C10.4004 17.1222 10.3764 17.7425 10.0244 18.0844C9.65203 18.4446 9.03636 18.4136 8.68987 18.048L1.14001 10.1319C0.918819 9.91723 0.878267 9.70987 0.874582 9.49159C0.874582 9.27698 1.00729 8.98959 1.14001 8.85134Z" fill="#333333"/>
</svg>
